<?xml version="1.0" standalone="no"?>
<!DOCTYPE svg PUBLIC "-//W3C//DTD SVG 20010904//EN"
 "http://www.w3.org/TR/2001/REC-SVG-20010904/DTD/svg10.dtd">
<svg version="1.0" xmlns="http://www.w3.org/2000/svg"
 width="456.000000pt" height="128.000000pt" viewBox="0 0 456.000000 128.000000"
 preserveAspectRatio="xMidYMid meet">

<g transform="translate(0.000000,128.000000) scale(0.100000,-0.100000)"
fill="#000000" stroke="none">
<path d="M803 1043 c-63 -12 -95 -96 -61 -161 11 -21 6 -28 -58 -93 l-70 -70
-30 16 c-36 19 -57 19 -93 1 -27 -14 -29 -13 -93 45 -64 57 -66 60 -61 97 4
34 1 42 -22 60 -15 12 -36 22 -47 22 -26 0 -68 -44 -68 -73 0 -47 76 -87 107
-56 8 8 30 -7 77 -52 62 -58 66 -64 59 -93 -9 -42 -6 -85 8 -102 9 -12 -2 -29
-59 -92 -45 -50 -76 -76 -88 -75 -11 2 -36 6 -56 9 -74 12 -135 -67 -105 -138
39 -93 165 -89 197 6 9 28 8 42 -5 72 l-16 38 77 77 76 77 39 -16 c31 -12 39
-20 42 -46 4 -30 4 -30 5 5 1 25 8 39 20 43 9 3 24 11 33 17 22 17 152 -77
145 -104 -6 -22 10 -68 27 -79 22 -14 74 -8 90 10 22 25 21 75 -1 95 -21 19
-73 22 -89 6 -9 -9 -29 1 -82 40 l-69 52 9 35 c8 26 7 42 -4 63 -14 27 -13 29
53 101 66 73 66 73 99 62 88 -31 170 46 141 132 -16 50 -71 79 -127 69z"/>
<path d="M1180 610 l0 -220 45 0 45 0 0 220 0 220 -45 0 -45 0 0 -220z"/>
<path d="M1370 610 l0 -220 45 0 44 0 3 58 3 57 87 5 c118 7 122 11 126 141 4
112 -6 150 -44 168 -14 6 -77 11 -144 11 l-120 0 0 -220z m210 60 l0 -60 -55
0 -55 0 0 60 0 60 55 0 55 0 0 -60z"/>
<path d="M2090 610 l0 -220 50 0 50 0 0 85 0 85 65 0 65 0 0 45 0 44 -62 3
-63 3 -3 38 -3 37 90 0 91 0 0 50 0 50 -140 0 -140 0 0 -220z"/>
<path d="M2503 818 c-33 -16 -46 -59 -41 -144 5 -98 20 -114 115 -114 l64 0
-3 -37 -3 -38 -87 -3 -88 -3 0 -44 0 -45 114 0 c155 0 161 5 161 128 0 117
-10 130 -104 134 l-66 3 -3 38 -3 37 90 0 91 0 0 50 0 50 -107 -1 c-60 0 -118
-5 -130 -11z"/>
<path d="M2960 610 l0 -220 45 0 44 0 3 58 3 57 87 5 c118 7 122 11 126 141 4
112 -6 150 -44 168 -14 6 -77 11 -144 11 l-120 0 0 -220z m210 60 l0 -60 -55
0 -55 0 0 60 0 60 55 0 55 0 0 -60z"/>
<path d="M3360 610 l0 -220 130 0 130 0 0 45 0 44 -77 3 -78 3 -3 173 -2 172
-50 0 -50 0 0 -220z"/>
<path d="M3807 698 c-20 -73 -48 -172 -61 -220 l-25 -88 49 0 c46 0 49 2 55
30 6 29 8 30 66 30 58 0 60 -1 66 -30 5 -28 8 -30 54 -30 27 0 49 1 49 3 0 3
-106 388 -116 420 -4 13 -16 17 -53 17 l-48 0 -36 -132z m97 -88 c3 -11 9 -29
12 -40 4 -17 1 -20 -24 -20 -30 0 -30 0 -20 40 11 44 23 51 32 20z"/>
<path d="M4080 824 c0 -3 27 -66 60 -140 57 -127 60 -137 60 -214 l0 -80 45 0
45 0 0 79 c0 74 3 85 60 211 33 73 60 137 60 141 0 5 -20 9 -45 9 -38 0 -47
-4 -54 -22 -5 -13 -22 -50 -37 -83 l-27 -60 -38 83 -39 82 -45 0 c-25 0 -45
-3 -45 -6z"/>
<path d="M1800 575 l0 -45 90 0 90 0 0 45 0 45 -90 0 -90 0 0 -45z"/>
<path d="M563 420 c0 -25 2 -35 4 -22 2 12 2 32 0 45 -2 12 -4 2 -4 -23z"/>
<path d="M543 350 c-48 -19 -58 -95 -18 -135 61 -62 162 3 134 85 -11 29 -53
61 -81 59 -7 0 -23 -4 -35 -9z"/>
</g>
</svg>
