<?xml version="1.0" standalone="no"?>
<!DOCTYPE svg PUBLIC "-//W3C//DTD SVG 20010904//EN"
 "http://www.w3.org/TR/2001/REC-SVG-20010904/DTD/svg10.dtd">
<svg version="1.0" xmlns="http://www.w3.org/2000/svg"
 width="300.000000pt" height="93.000000pt" viewBox="0 0 300.000000 93.000000"
 preserveAspectRatio="xMidYMid meet">
<metadata>
Created by potrace 1.10, written by Peter Selinger 2001-2011
</metadata>
<g transform="translate(0.000000,93.000000) scale(0.100000,-0.100000)"
fill="#000000" stroke="none">
<path d="M2405 910 c-36 -11 -93 -64 -106 -98 -5 -13 -9 -37 -9 -53 0 -27 -2
-29 -40 -29 l-40 0 0 -60 0 -60 40 0 40 0 0 -195 0 -195 71 0 70 0 -3 195 -3
195 32 0 c29 0 36 6 60 53 15 28 29 55 31 60 2 4 -26 7 -61 7 -62 0 -65 1 -60
23 9 35 23 47 58 47 28 0 36 7 64 51 17 28 30 54 27 57 -10 9 -141 11 -171 2z
m105 -40 c0 -5 -19 -19 -42 -31 -49 -24 -77 -55 -78 -83 0 -25 38 -66 62 -66
23 0 24 -29 1 -37 -10 -3 -28 -15 -40 -26 -22 -20 -23 -27 -23 -183 0 -165 -4
-181 -40 -180 -12 1 -16 29 -20 166 -5 171 -13 203 -52 216 -19 6 -25 44 -8
44 18 0 60 52 60 74 0 33 34 81 71 99 37 18 109 23 109 7z"/>
<path d="M395 875 c-33 -32 -31 -61 5 -95 30 -28 30 -30 30 -129 0 -79 -3
-101 -14 -101 -7 0 -25 -9 -40 -21 l-26 -20 -45 37 c-25 20 -45 45 -45 55 0
23 -45 27 -54 4 -6 -17 20 -46 37 -40 7 2 30 -12 53 -33 38 -34 41 -40 37 -78
l-5 -42 -111 -45 c-100 -39 -114 -43 -133 -30 -19 12 -24 11 -44 -5 -26 -21
-21 -55 11 -72 15 -9 24 -6 45 15 14 14 75 46 136 70 l110 45 23 -22 c21 -21
22 -23 6 -62 -9 -23 -24 -48 -35 -57 -25 -21 -15 -52 16 -47 19 2 23 10 24 43
1 22 6 53 13 68 9 24 16 28 43 25 31 -3 34 -7 70 -103 21 -54 33 -102 28 -105
-5 -3 -13 -17 -18 -30 -21 -56 44 -108 94 -75 49 32 39 95 -18 120 -26 10 -36
26 -64 101 -19 49 -34 92 -34 97 0 4 9 16 19 26 19 19 21 19 138 -26 65 -25
125 -52 134 -60 14 -11 18 -11 28 1 14 16 1 28 -34 32 -11 2 -67 20 -125 42
-104 40 -105 40 -105 73 0 30 4 34 43 46 39 11 45 10 62 -7 23 -23 33 -24 61
-9 53 28 38 109 -20 109 -30 0 -61 -27 -61 -52 0 -9 -12 -18 -27 -22 -16 -3
-38 -8 -50 -12 -16 -4 -23 -1 -28 16 -4 11 -22 28 -41 37 l-34 17 0 107 c0 97
2 108 19 114 25 8 42 55 29 81 -26 49 -66 57 -103 19z m65 -45 c0 -5 -5 -12
-11 -16 -14 -8 -33 11 -25 25 7 11 36 4 36 -9z m24 -346 c20 -20 21 -68 0 -88
-8 -9 -29 -16 -46 -16 -78 0 -94 91 -23 128 21 11 42 4 69 -24z m106 -404 c0
-11 -6 -20 -14 -20 -18 0 -29 16 -21 30 11 18 35 11 35 -10z"/>
<path d="M1056 838 l2 -63 71 -3 71 -3 0 66 0 65 -72 0 -73 0 1 -62z m94 3 c0
-22 -21 -33 -40 -21 -18 11 -4 40 20 40 13 0 20 -7 20 -19z"/>
<path d="M1014 670 l-31 -60 41 0 41 0 -3 -195 -3 -195 71 0 70 0 0 255 0 255
-77 0 -78 0 -31 -60z m130 14 c14 -5 16 -33 16 -209 0 -185 -2 -203 -17 -207
-41 -11 -43 -3 -43 171 0 155 -2 169 -20 186 -25 22 -25 41 -2 54 20 12 44 14
66 5z"/>
<path d="M1290 678 c-16 -29 -30 -56 -30 -60 0 -5 20 -8 45 -8 l45 0 0 -305
c0 -298 0 -305 20 -305 20 0 20 7 20 300 l0 299 -30 35 -31 35 22 11 c27 15
71 7 108 -21 l28 -21 52 27 c119 62 219 -8 229 -160 10 -147 -69 -244 -200
-245 -100 0 -118 -27 -118 -171 0 -82 2 -89 20 -89 19 0 20 7 20 109 l0 108
78 5 c99 6 154 34 199 101 74 110 49 310 -46 373 -68 44 -173 41 -216 -6 -25
-28 -35 -25 -35 10 l0 30 -75 0 -75 0 -30 -52z"/>
<path d="M2717 716 c-71 -26 -107 -76 -107 -149 0 -73 43 -112 160 -147 62
-18 79 -49 39 -70 -22 -12 -140 -9 -169 4 -12 5 -18 -6 -28 -50 -8 -31 -12
-57 -10 -58 12 -10 106 -26 151 -26 91 0 171 39 202 100 23 44 19 111 -8 151
-21 32 -38 40 -169 84 -25 9 -22 42 3 56 20 10 62 8 115 -7 17 -5 26 3 48 41
15 26 26 48 24 50 -2 2 -30 11 -63 20 -72 18 -137 19 -188 1z m157 -36 c46
-17 28 -30 -40 -28 -63 2 -68 1 -90 -27 -13 -17 -24 -35 -24 -41 0 -28 45 -64
110 -89 39 -15 77 -36 85 -48 26 -37 19 -92 -16 -131 -35 -40 -79 -56 -156
-56 -61 0 -83 7 -83 26 0 11 17 14 69 14 60 0 74 3 100 26 61 51 24 122 -72
141 -60 11 -107 58 -107 106 0 23 24 87 33 87 1 0 20 7 42 15 47 17 113 19
149 5z"/>
<path d="M1503 613 c-37 -33 -53 -83 -53 -169 0 -115 34 -154 122 -140 80 13
128 77 128 169 0 66 -16 103 -60 141 -43 36 -95 35 -137 -1z m112 -19 c40 -16
61 -130 36 -193 -16 -38 -60 -61 -116 -61 l-47 0 4 109 c2 90 6 113 22 130 19
21 66 28 101 15z"/>
<path d="M1890 485 l0 -65 125 0 125 0 0 65 0 65 -125 0 -125 0 0 -65z m208 3
c-3 -21 -9 -23 -77 -26 -76 -3 -98 5 -88 32 5 13 23 16 87 16 79 0 81 -1 78
-22z"/>
</g>
</svg>
