<?xml version="1.0" standalone="no"?>
<!DOCTYPE svg PUBLIC "-//W3C//DTD SVG 20010904//EN"
 "http://www.w3.org/TR/2001/REC-SVG-20010904/DTD/svg10.dtd">
<svg version="1.0" xmlns="http://www.w3.org/2000/svg"
 width="142.000000pt" height="155.000000pt" viewBox="0 0 142.000000 155.000000"
 preserveAspectRatio="xMidYMid meet">
<metadata>
Created by potrace 1.10, written by Peter Selinger 2001-2011
</metadata>
<g transform="translate(0.000000,155.000000) scale(0.100000,-0.100000)"
fill="#000000" stroke="none">
<path d="M684 1484 c-43 -23 -68 -67 -61 -112 6 -36 51 -92 74 -92 10 0 13
-38 13 -179 l0 -179 -35 -12 c-20 -6 -48 -22 -63 -35 l-28 -23 -72 55 c-52 41
-72 62 -72 79 0 46 -52 70 -84 38 -37 -36 -8 -86 46 -82 34 3 172 -109 162
-131 -4 -9 -10 -40 -13 -70 l-6 -53 -184 -74 -183 -73 -28 21 c-24 18 -32 19
-63 9 -67 -22 -69 -108 -4 -139 24 -12 32 -11 60 5 18 11 33 28 35 39 3 15 46
36 197 95 l194 77 39 -37 38 -36 -26 -69 c-18 -47 -34 -72 -48 -77 -11 -4 -26
-17 -32 -29 -25 -46 47 -95 80 -55 7 9 10 28 7 47 -4 22 3 57 19 103 l25 70
52 -3 53 -4 61 -161 c60 -160 60 -162 42 -183 -11 -11 -24 -36 -29 -55 -13
-43 9 -98 50 -122 99 -59 212 54 153 153 -17 29 -84 67 -100 57 -5 -3 -37 70
-72 162 l-63 167 34 35 33 34 203 -76 c112 -42 208 -83 215 -93 21 -28 52 -17
52 19 0 28 -2 30 -40 30 -35 0 -387 125 -406 144 -4 3 -4 28 0 55 l6 48 69 22
69 21 28 -27 c21 -22 37 -28 69 -28 107 0 139 140 43 185 -60 29 -127 -6 -139
-71 -6 -30 -11 -34 -77 -54 -67 -21 -72 -21 -82 -5 -26 45 -59 75 -100 91
l-45 17 0 174 c0 156 2 174 18 180 29 10 61 45 72 79 29 86 -73 170 -156 128z
m98 -51 c28 -25 23 -74 -10 -106 -15 -15 -33 -27 -39 -27 -15 0 -73 67 -73 84
0 7 9 25 21 40 24 31 72 35 101 9z m412 -545 c21 -30 20 -44 -4 -68 -24 -24
-57 -26 -82 -3 -36 32 -8 93 42 93 18 0 34 -8 44 -22z m-414 -18 c56 -29 90
-77 90 -129 0 -48 -11 -74 -49 -113 -23 -24 -34 -27 -87 -28 -55 0 -64 3 -102
36 -38 33 -42 40 -42 83 0 78 16 108 74 141 61 35 65 36 116 10z m-646 -346
c20 -8 20 -18 0 -38 -21 -22 -41 -20 -49 4 -11 34 10 49 49 34z m874 -350 c29
-33 28 -59 -3 -89 -30 -31 -62 -32 -92 -3 -27 26 -30 73 -7 107 13 19 23 22
48 17 17 -3 41 -17 54 -32z"/>
</g>
</svg>
