<?xml version="1.0" standalone="no"?>
<!DOCTYPE svg PUBLIC "-//W3C//DTD SVG 20010904//EN"
 "http://www.w3.org/TR/2001/REC-SVG-20010904/DTD/svg10.dtd">
<svg version="1.0" xmlns="http://www.w3.org/2000/svg"
 width="142.000000pt" height="155.000000pt" viewBox="0 0 142.000000 155.000000"
 preserveAspectRatio="xMidYMid meet">
<metadata>
Created by potrace 1.10, written by Peter Selinger 2001-2011
</metadata>
<g transform="translate(0.000000,155.000000) scale(0.050000,-0.050000)"
fill="#ffffff" stroke="none">
<path d="M1322 2947 c-74 -67 -102 -152 -79 -240 18 -68 128 -175 165 -161 16
6 22 -94 22 -345 l0 -353 -50 -4 c-27 -2 -88 -30 -133 -63 l-84 -58 -139 108
c-77 60 -139 120 -139 134 3 72 -10 98 -56 115 -93 36 -193 -58 -149 -140 32
-60 89 -83 150 -60 29 11 47 12 42 3 -6 -10 44 -61 112 -115 68 -53 116 -84
107 -69 -12 19 -10 23 7 12 14 -8 20 -20 14 -26 -6 -5 -2 -27 9 -48 14 -26 14
-37 -2 -37 -13 0 -16 -17 -8 -43 9 -28 6 -38 -9 -28 -14 9 -22 -8 -22 -49 0
-34 8 -57 18 -51 11 6 22 -4 27 -24 4 -19 14 34 23 119 8 85 9 164 2 176 -7
11 -6 20 4 18 9 -1 21 -1 26 1 6 2 29 8 52 12 24 4 88 31 143 58 56 28 111 51
123 51 15 0 22 108 22 349 0 328 2 349 39 361 141 44 186 274 76 385 -82 81
-230 87 -313 12z m252 -65 c61 -51 66 -158 10 -236 -23 -33 -36 -68 -28 -76 8
-9 4 -10 -9 -3 -13 7 -27 2 -32 -12 -6 -17 -32 -7 -82 31 -67 51 -83 53 -75 8
2 -10 -5 -12 -16 -5 -10 6 -14 29 -8 51 6 22 3 40 -7 40 -29 0 -5 162 30 203
41 48 159 48 217 -1z"/>
<path d="M2174 1880 c-54 -43 -106 -165 -84 -199 6 -11 0 -16 -14 -11 -34 13
-261 -59 -243 -76 8 -8 1 -14 -15 -14 -20 0 -29 -29 -30 -105 -3 -127 -26
-219 -51 -203 -10 6 -16 -1 -12 -15 3 -14 -4 -26 -15 -26 -34 -2 -70 -32 -68
-57 1 -17 4 -17 11 1 6 14 17 21 25 16 30 -18 160 140 141 170 -25 40 -23 64
3 48 16 -10 20 10 15 65 -4 46 1 79 13 78 45 -4 230 53 230 71 0 11 30 -12 67
-52 147 -155 410 -18 362 189 -34 144 -219 210 -335 120z m209 -73 c47 -42 48
-151 2 -191 -58 -50 -164 -96 -152 -66 5 15 -16 37 -50 52 -34 15 -55 37 -49
52 6 15 -1 40 -15 57 -20 25 -19 28 8 17 39 -15 43 13 8 52 -21 23 -20 24 5 6
32 -24 113 15 86 41 -29 30 124 10 157 -20z"/>
<path d="M1531 1821 c-7 -10 8 -29 33 -42 25 -13 83 -59 129 -103 51 -50 87
-71 96 -58 7 12 3 22 -9 22 -12 0 -16 10 -9 21 17 29 -72 123 -104 110 -14 -5
-32 1 -39 13 -9 14 -5 16 12 6 17 -11 21 -8 12 7 -8 13 -37 18 -68 11 -42 -9
-47 -6 -24 10 18 13 21 22 6 22 -13 0 -29 -9 -35 -19z"/>
<path d="M1052 1357 c8 -14 5 -18 -7 -10 -21 13 -625 -221 -646 -250 -6 -9
-37 2 -70 24 -79 52 -173 50 -221 -4 -25 -29 -28 -39 -8 -29 18 9 16 3 -5 -14
-86 -70 2 -234 125 -234 36 0 57 8 50 20 -7 11 1 15 18 8 20 -8 44 11 70 54
47 76 32 125 -19 62 -19 -23 -41 -36 -50 -28 -8 8 -9 3 -1 -11 8 -14 3 -26
-12 -26 -14 -1 -45 -6 -69 -10 -26 -5 -48 4 -55 24 -7 17 -25 26 -40 21 -33
-13 11 88 53 121 50 40 156 41 177 2 10 -20 36 -45 57 -56 44 -24 107 -7 88
24 -8 13 -4 15 11 6 29 -17 605 209 590 232 -25 40 29 12 82 -43 31 -33 61
-55 67 -50 11 11 61 -52 62 -78 1 -10 -6 -12 -13 -4 -8 8 -34 -38 -58 -102
-31 -82 -60 -125 -101 -147 -126 -70 -46 -262 84 -202 63 28 80 73 56 140 -14
40 -7 83 25 173 23 66 39 129 35 141 -4 11 11 22 33 23 22 2 40 -5 40 -15 0
-29 80 -22 111 10 41 40 40 41 -75 38 -103 -2 -207 39 -185 74 5 9 -8 13 -30
9 -25 -5 -49 7 -61 30 -26 49 -78 100 -103 100 -10 0 -13 -10 -5 -23z"/>
<path d="M1824 1295 c-25 -30 722 -326 760 -302 14 8 16 4 7 -11 -37 -61 81
-109 129 -52 50 60 8 132 -76 128 -49 -2 -191 42 -421 130 -385 146 -370 142
-399 107z"/>
<path d="M1570 1131 c-22 -16 -29 -30 -16 -30 15 -1 20 -15 12 -34 -9 -24 -6
-29 14 -17 17 11 21 8 12 -7 -19 -31 30 -164 55 -149 11 7 13 2 5 -11 -19 -30
90 -324 114 -309 10 6 12 -8 4 -34 -10 -31 -7 -41 8 -31 37 23 24 -10 -29 -74
-28 -33 -46 -73 -40 -89 6 -15 2 -23 -9 -16 -47 29 -20 -147 32 -209 29 -35
57 -58 63 -53 5 6 23 -3 39 -19 16 -16 53 -29 82 -29 41 1 47 5 25 19 -16 10
-37 14 -46 8 -9 -6 -42 19 -73 54 -37 42 -65 59 -82 49 -18 -11 -21 -8 -10 10
14 22 23 90 32 235 1 26 11 39 23 32 12 -7 15 -4 8 8 -23 38 47 45 128 12 88
-35 187 -138 171 -179 -5 -14 5 -30 24 -34 29 -8 29 -10 2 -12 -17 -1 -42 -25
-55 -53 -15 -32 -32 -46 -48 -37 -14 8 -18 7 -10 -2 8 -9 4 -29 -8 -44 -36
-44 -3 -54 54 -17 72 47 161 286 91 242 -10 -6 -14 5 -9 26 15 56 -117 163
-203 163 -56 0 -66 6 -56 33 9 25 6 29 -14 17 -19 -12 -23 -8 -15 15 13 34
-156 501 -185 511 -10 4 -12 21 -5 39 7 20 4 27 -10 18 -12 -7 -25 -4 -29 8
-4 12 -22 9 -46 -10z"/>
</g>
</svg>
