<?xml version="1.0" standalone="no"?>
<!DOCTYPE svg PUBLIC "-//W3C//DTD SVG 20010904//EN"
 "http://www.w3.org/TR/2001/REC-SVG-20010904/DTD/svg10.dtd">
<svg version="1.0" xmlns="http://www.w3.org/2000/svg"
 width="502.000000pt" height="155.000000pt" viewBox="0 0 502.000000 155.000000"
 preserveAspectRatio="xMidYMid meet">
<metadata>
Created by potrace 1.10, written by Peter Selinger 2001-2011
</metadata>
<g transform="translate(0.000000,155.000000) scale(0.050000,-0.050000)"
fill="#ffffff" stroke="none">
<path d="M7144 3028 c-169 -84 -304 -288 -304 -459 0 -43 -10 -48 -115 -53
l-115 -6 0 -190 0 -190 115 -6 114 -6 6 -574 5 -574 220 0 220 0 0 570 0 570
96 10 97 10 98 186 c55 103 99 191 99 195 0 5 -85 9 -190 9 -188 0 -190 1
-190 49 0 71 87 131 190 131 l85 0 94 162 c111 192 107 204 -84 211 l-135 4
112 -15 c152 -22 165 -32 127 -98 -18 -30 -52 -90 -77 -134 -30 -55 -60 -82
-93 -85 -139 -15 -202 -47 -231 -118 -52 -124 -30 -145 163 -151 l169 -6 -59
-120 c-85 -172 -103 -190 -196 -190 -108 0 -105 19 -105 -612 l0 -548 -190 0
-190 0 0 548 c0 648 8 612 -132 612 l-108 0 0 160 0 160 108 0 c113 0 132 15
132 107 0 58 64 233 85 233 10 0 12 8 6 18 -29 47 227 202 369 223 l90 14 -91
2 c-62 2 -124 -13 -195 -49z"/>
<path d="M3154 3027 c-22 -22 -17 -407 6 -409 130 -10 426 0 442 16 11 11 17
101 14 208 l-6 188 -221 6 c-122 3 -227 -1 -235 -9z m426 -207 l0 -180 -200 0
-200 0 0 180 0 180 200 0 200 0 0 -180z"/>
<path d="M1168 2952 c-108 -108 -64 -352 64 -352 23 0 28 -55 27 -305 l-1
-305 -111 -55 -111 -55 -113 88 c-72 55 -115 104 -117 131 -11 141 -206 138
-206 -3 0 -59 80 -131 120 -106 12 7 53 -11 92 -40 95 -73 108 -51 17 28 -45
39 -85 59 -107 53 -54 -18 -109 34 -93 87 8 25 20 40 26 34 6 -7 22 -2 36 9
30 25 89 -27 89 -79 0 -19 31 -64 69 -101 38 -37 65 -74 60 -83 -5 -8 14 -33
42 -55 48 -38 50 -46 29 -123 -12 -45 -17 -99 -10 -119 9 -31 -7 -43 -94 -72
-58 -19 -169 -63 -246 -98 -215 -96 -307 -122 -335 -94 -34 34 -167 28 -204
-8 -85 -86 -13 -269 106 -269 45 0 143 73 143 107 0 22 114 73 542 242 l133
52 62 -58 62 -58 -47 -117 c-26 -64 -60 -120 -75 -125 -88 -26 -103 -148 -22
-190 97 -51 238 80 147 136 -11 6 0 67 25 138 l43 128 86 -4 87 -4 46 -128
c26 -71 72 -195 102 -275 l55 -146 -43 -77 c-122 -217 112 -450 303 -301 82
65 128 316 49 267 -13 -8 -15 -3 -6 11 22 36 -45 99 -121 114 -71 13 -64 0
-257 507 -25 66 -23 72 31 123 l57 53 134 -48 c73 -27 146 -44 161 -38 16 6
23 2 17 -8 -6 -10 76 -52 182 -93 107 -41 210 -91 230 -111 69 -69 153 -22
129 73 -11 42 -24 49 -87 48 -45 -1 -171 36 -315 92 -132 52 -278 107 -324
123 -82 29 -84 32 -80 117 l4 87 119 30 c118 30 119 30 164 -18 91 -99 290
-37 315 98 47 248 -251 347 -357 118 -49 -105 -258 -198 -281 -125 -16 49
-139 156 -195 171 -67 16 -59 619 7 640 23 7 58 41 79 76 135 220 -151 447
-333 265z m253 -6 c112 -77 112 -181 -1 -288 l-80 -76 0 -307 0 -308 71 -33
c38 -19 76 -48 82 -66 10 -24 16 -25 28 -6 11 17 26 1 46 -49 36 -85 45 -86
207 -32 112 38 123 47 135 110 14 77 89 145 115 104 10 -16 15 -17 16 -3 0 33
106 8 130 -30 20 -33 24 -45 28 -108 1 -23 11 -31 27 -22 14 8 3 -11 -25 -42
-27 -31 -36 -49 -20 -40 25 13 26 11 4 -12 -44 -47 -223 -37 -258 15 l-29 44
-123 -41 c-153 -51 -149 -47 -157 -154 l-7 -88 130 -56 c72 -31 117 -56 100
-56 -16 0 -79 21 -139 46 l-108 47 -68 -71 c-37 -40 -63 -86 -58 -103 87 -293
218 -581 265 -581 109 0 222 -244 127 -277 -10 -3 -14 -15 -8 -25 18 -28 -122
-86 -164 -68 -20 9 -42 17 -48 18 -83 13 -121 182 -62 281 47 81 48 77 -103
464 l-79 204 -98 6 -97 7 -50 -127 c-36 -89 -48 -146 -39 -193 15 -77 -33
-121 -95 -88 -51 27 -45 88 12 131 27 20 71 90 98 155 l49 118 -79 76 -80 75
-113 -47 c-108 -44 -188 -73 -198 -72 -5 1 -159 -64 -290 -123 -52 -23 -95
-54 -95 -67 0 -76 -139 -109 -200 -48 -42 42 -55 140 -19 140 12 0 16 9 9 20
-7 11 8 21 34 22 25 2 60 4 76 6 17 1 45 -9 63 -24 27 -22 45 -21 108 5 41 17
93 35 117 39 23 4 92 30 152 58 261 118 299 134 319 134 12 0 21 35 21 79 0
43 9 103 21 132 16 44 13 63 -15 95 -35 39 -35 40 0 21 26 -15 66 -4 155 40
l119 59 0 326 c0 297 -3 326 -36 337 -52 16 -130 162 -114 212 39 122 187 176
291 105z m914 -1695 c70 -1 98 -35 56 -70 -19 -16 -32 -14 -49 7 -13 15 -75
48 -138 73 -63 25 -123 53 -134 64 -11 10 30 -3 90 -28 61 -25 139 -45 175
-46z"/>
<path d="M3035 2352 c-125 -220 -124 -232 15 -232 l109 0 6 -575 5 -575 220 0
220 0 0 770 0 770 -240 5 -240 5 -95 -168z m564 -224 c2 -259 -5 -361 -23
-384 -16 -19 -17 -26 -3 -18 17 10 23 -69 24 -306 0 -179 -8 -324 -18 -331
-11 -6 -19 -29 -19 -51 0 -37 -12 -39 -185 -34 l-185 6 0 575 0 575 -105 0
c-124 0 -125 7 -38 145 36 58 72 121 79 140 11 31 42 35 242 35 l229 0 2 -352z"/>
<path d="M3930 2501 c-25 -42 -190 -364 -190 -372 0 -5 63 -9 140 -9 l140 0 0
-900 0 -900 240 0 240 0 0 319 0 319 158 -2 c608 -8 927 487 737 1144 -113
391 -585 557 -881 308 l-62 -52 -22 77 -21 77 -233 6 c-145 3 -238 -3 -246
-15z m1154 -69 c52 -25 90 -52 82 -59 -7 -7 -2 -13 11 -13 201 0 324 -839 149
-1016 -14 -15 -26 -35 -26 -45 0 -64 -245 -256 -347 -272 -24 -3 -92 -17 -153
-29 -60 -12 -157 -17 -215 -11 l-105 10 -2 -143 c-2 -79 -2 -162 -1 -184 2
-40 2 -40 -16 0 -20 44 -21 44 -31 -35 -4 -30 1 -55 11 -55 11 0 19 11 19 23
0 13 7 17 15 9 8 -9 1 -26 -16 -39 -16 -12 -30 -41 -30 -63 -1 -22 -11 -38
-23 -36 -12 3 -20 -11 -19 -30 2 -26 -15 -35 -77 -37 -44 -1 -97 -9 -117 -18
-23 -9 -43 -5 -53 10 -11 18 -19 19 -29 3 -43 -70 -51 65 -51 879 l0 879 -131
0 c-154 0 -154 1 -35 203 l69 118 213 -5 213 -6 19 -70 c25 -93 25 -93 77 -48
176 151 390 180 599 80z"/>
<path d="M4565 2080 c-45 -27 -65 -55 -65 -89 0 -27 -15 -57 -33 -67 -22 -13
-25 -23 -10 -32 15 -10 23 -105 23 -282 l0 -268 115 -6 c275 -14 412 120 410
401 -2 314 -215 480 -440 343z m318 -57 c223 -250 64 -663 -256 -663 l-127 0
0 282 c0 390 41 467 239 450 69 -6 102 -22 144 -69z"/>
<path d="M4428 1640 c-1 -121 6 -220 15 -220 9 0 17 99 17 220 0 121 -7 220
-15 220 -8 0 -16 -99 -17 -220z"/>
<path d="M4429 800 c0 -44 7 -80 15 -80 9 0 16 36 16 80 0 44 -7 80 -15 80 -8
0 -15 -36 -16 -80z"/>
<path d="M8144 2483 c-529 -188 -447 -774 128 -915 166 -41 192 -59 184 -126
-12 -101 -237 -122 -540 -50 -58 13 -134 -162 -110 -254 6 -22 2 -33 -10 -26
-11 7 -17 -7 -13 -34 16 -108 530 -160 766 -78 261 90 358 209 368 456 9 219
-101 424 -228 424 -39 0 -1 -44 55 -65 71 -27 144 -173 152 -304 23 -358 -347
-590 -814 -511 -78 13 -142 33 -142 44 0 13 -10 12 -28 -2 -28 -23 -44 -4 -66
78 -27 99 23 240 85 240 27 0 49 -7 49 -15 0 -28 327 -27 410 1 183 64 131
177 -114 251 -277 85 -451 233 -431 368 4 30 0 55 -9 55 -35 0 9 152 71 246
129 198 431 277 743 195 88 -23 163 -51 167 -62 3 -10 15 -14 25 -8 49 31 -10
-142 -78 -229 -36 -44 -43 -46 -115 -22 -321 106 -545 -84 -236 -199 120 -45
245 -75 227 -55 -6 6 -82 37 -170 69 -304 110 -156 252 162 155 134 -40 139
-39 169 35 15 36 47 96 73 135 71 108 62 127 -89 179 -188 66 -492 77 -641 24z"/>
<path d="M5649 1973 c-6 -14 -8 -111 -5 -215 l6 -188 395 -5 395 -6 0 221 0
220 -391 0 c-305 0 -392 -6 -400 -27z m764 -168 c3 -99 -3 -141 -18 -132 -12
8 -15 4 -7 -10 40 -64 -36 -80 -370 -77 l-328 4 -6 185 -6 186 366 -6 366 -5
3 -145z"/>
</g>
</svg>
